<?xml version="1.0" standalone="no"?>
<!DOCTYPE svg PUBLIC "-//W3C//DTD SVG 20010904//EN"
 "http://www.w3.org/TR/2001/REC-SVG-20010904/DTD/svg10.dtd">
<svg version="1.0" xmlns="http://www.w3.org/2000/svg"
 width="512.000000pt" height="512.000000pt" viewBox="0 0 512.000000 512.000000"
 preserveAspectRatio="xMidYMid meet">
<metadata>
Created by potrace 1.14, written by Peter Selinger 2001-2017
</metadata>
<g transform="translate(0.000000,512.000000) scale(0.100000,-0.100000)"
fill="#000000" stroke="none">
<path d="M805 5104 c-38 -8 -117 -38 -175 -66 -91 -44 -115 -62 -195 -142 -76
-76 -99 -106 -138 -186 -56 -115 -79 -206 -80 -325 -1 -138 17 -222 74 -337
107 -220 304 -366 557 -413 13 -2 46 -5 75 -6 60 -2 91 -16 129 -56 27 -29
1227 -1824 1255 -1877 34 -66 36 -94 38 -631 3 -582 2 -587 -49 -620 -23 -16
-70 -18 -444 -19 -374 -1 -420 -3 -449 -19 -159 -85 -161 -301 -3 -384 l43
-23 1127 3 1126 2 42 28 c59 39 95 99 98 165 4 92 -29 155 -106 200 l-45 27
-417 1 c-368 1 -421 4 -443 18 -53 35 -52 28 -51 621 2 541 2 551 23 598 12
26 389 597 837 1270 448 672 822 1240 832 1262 44 105 -25 243 -137 275 -20 6
-528 10 -1299 10 l-1266 0 -36 30 c-27 22 -45 53 -72 119 -47 120 -95 192
-181 276 -138 135 -301 205 -490 210 -69 2 -136 -2 -180 -11z m301 -447 c106
-54 168 -155 169 -277 2 -98 -22 -163 -83 -227 -122 -127 -326 -131 -454 -9
-88 84 -120 230 -76 346 28 73 114 159 183 183 75 25 195 18 261 -16z m2696
-627 c12 -14 16 -31 12 -44 -7 -24 -585 -898 -618 -934 -12 -13 -39 -33 -61
-45 -39 -20 -55 -20 -575 -20 -520 0 -536 0 -575 20 -22 12 -49 32 -61 45 -36
39 -484 719 -484 733 0 8 27 44 60 82 33 37 77 93 98 123 31 45 44 56 72 60
19 3 503 5 1074 4 l1039 -1 19 -23z"/>
</g>
</svg>
