<svg width="718" height="165" viewBox="0 0 718 165" fill="none" xmlns="http://www.w3.org/2000/svg">
<g opacity="0.5">
<path d="M26.25 3.28125H0V160.781H30.4062V57.9688L102.594 160.781H128.844V3.28125H98.6563V106.094L26.25 3.28125Z" fill="#372B43" fill-opacity="0.62"/>
<path d="M231.451 164.063C253.326 164.063 274.982 155.75 289.42 138.25C302.326 122.5 307.357 103.906 307.795 82.0313C307.357 61.0313 302.764 41.7812 289.42 25.5938C275.42 8.53126 254.201 0 231.451 0C208.701 0 187.264 8.3125 173.482 25.5938C160.795 40.9063 155.107 61.0313 155.107 82.0313C155.107 103.031 160.795 122.938 173.482 138.25C187.045 155.313 208.92 164.063 231.451 164.063ZM231.451 136.063C217.889 136.281 204.764 130.813 197.107 120.313C189.014 109.813 186.607 95.8125 186.389 82.0313C186.607 68.25 189.014 54.0312 197.107 43.75C204.764 33.25 217.889 27.7813 231.451 28C245.014 27.7813 257.92 33.25 265.795 43.75C273.67 54.0312 276.295 68.25 276.295 82.0313C276.295 95.8125 273.67 109.813 265.795 120.313C257.92 130.813 245.014 136.281 231.451 136.063Z" fill="#372B43" fill-opacity="0.62"/>
<path d="M443.516 3.28125H314.453V33.0313H364.109V160.781H393.859V33.0313H443.516V3.28125Z" fill="#372B43" fill-opacity="0.62"/>
<path d="M552.59 160.781H583.215L535.09 3.28125H490.684L442.559 160.781H473.184L480.621 136.281H544.934L552.59 160.781ZM489.152 108.281L512.559 31.2813L536.402 108.281H489.152Z" fill="#372B43" fill-opacity="0.62"/>
<path d="M707.779 84C705.373 80.9375 702.748 78.0938 699.904 75.4688C700.123 75.25 700.561 74.8125 700.779 74.375C706.686 66.9375 710.186 57.3125 709.967 48.125C709.748 38.5 706.686 28.875 700.779 21.4375C695.529 13.7813 687.436 8.09375 678.248 5.46875C673.873 3.9375 669.279 3.28125 664.686 3.28125H601.904V160.781H668.404C673.436 160.781 678.467 159.688 683.279 158.375C692.904 155.313 701.654 149.406 707.779 141.313C713.904 132.781 717.186 122.719 717.186 112.656C717.186 102.156 713.904 92.0938 707.779 84ZM664.467 31.0625C667.967 31.0625 673.217 33.9063 675.404 36.75C678.248 39.8125 679.561 43.9688 679.779 48.125C679.998 51.8438 678.467 55.5625 676.061 58.4063C673.654 61.4688 669.279 63.875 666.217 64.5313H632.092V31.0625H664.467ZM687.217 112.656C686.998 118.344 685.029 123.813 680.654 127.531C677.154 130.594 672.779 132.781 667.967 132.781H632.092V92.5313H667.967C672.998 92.5313 677.154 93.625 681.529 98C685.248 101.938 687.436 107.406 687.217 112.656Z" fill="#372B43" fill-opacity="0.62"/>
</g>
</svg>
